<?xml version="1.0" encoding="UTF-8" standalone="no"?>
<svg
   viewBox="0 0 16 16"
   version="1.1"
   id="svg2"
   sodipodi:docname="password-show-on.svg"
   inkscape:version="1.4 (unknown)"
   xmlns:inkscape="http://www.inkscape.org/namespaces/inkscape"
   xmlns:sodipodi="http://sodipodi.sourceforge.net/DTD/sodipodi-0.dtd"
   xmlns="http://www.w3.org/2000/svg"
   xmlns:svg="http://www.w3.org/2000/svg">
  <sodipodi:namedview
     id="namedview2"
     pagecolor="#ffffff"
     bordercolor="#000000"
     borderopacity="0.25"
     inkscape:showpageshadow="2"
     inkscape:pageopacity="0.0"
     inkscape:pagecheckerboard="0"
     inkscape:deskcolor="#d1d1d1"
     inkscape:zoom="49.9375"
     inkscape:cx="8"
     inkscape:cy="8"
     inkscape:window-width="1920"
     inkscape:window-height="1008"
     inkscape:window-x="0"
     inkscape:window-y="0"
     inkscape:window-maximized="1"
     inkscape:current-layer="svg2" />
  <defs
     id="defs3051">
    <style
       type="text/css"
       id="current-color-scheme">
      .ColorScheme-Text {
        color:#232629;
      }
      </style>
  </defs>
  <g
     transform="translate(-421.71429,-531.79074)"
     id="g2">
    <g
       transform="matrix(0.75,0,0,0.74999813,421.46429,-241.22897)"
       id="g1">
      <path
         style="fill:currentColor;fill-opacity:1;stroke:none"
         d="M 8 3 A 8.9999925 9.0000023 0 0 0 0.12304688 7.6679688 C 0.2519919 8.0317178 0.48048563 8.3445725 0.77929688 8.5761719 A 7.9999935 8.0000021 0 0 1 8 4 A 3.9999996 4.0000004 0 0 0 4 8 A 3.9999996 4.0000004 0 0 0 8 12 A 3.9999996 4.0000004 0 0 0 12 8 A 3.9999996 4.0000004 0 0 0 8.3496094 4.0175781 A 7.9999935 8.0000021 0 0 1 15.220703 8.5761719 C 15.522218 8.3424725 15.752612 8.0260772 15.880859 7.6582031 A 8.9999925 9.0000023 0 0 0 8 3 z M 8 5 A 2.9999996 3.0000002 0 0 1 11 8 A 2.9999996 3.0000002 0 0 1 8 11 A 2.9999996 3.0000002 0 0 1 5 8 A 2.9999996 3.0000002 0 0 1 8 5 z M 8 6 A 1.9999999 2.0000003 0 0 0 6 8 A 1.9999999 2.0000003 0 0 0 8 10 A 1.9999999 2.0000003 0 0 0 10 8 A 1.9999999 2.0000003 0 0 0 9.9101562 7.4121094 A 0.9999999 1 0 0 1 9 8 A 0.9999999 1 0 0 1 8 7 A 0.9999999 1 0 0 1 8.5898438 6.0898438 A 1.9999999 2.0000003 0 0 0 8 6 z "
         transform="matrix(1.3333333,0,0,1.3333367,0.33333333,1030.6955)"
         class="ColorScheme-Text"
         id="rect4170" />
    </g>
  </g>
</svg>
